PathFileType	4	(X/Y/Z)	/Users/itak/Documents/Research/Walk-IL/dataset/trc/00528_00183.trc
DataRate	CameraRate	NumFrames	NumMarkers	Units	OrigDataRate	OrigDataStartFrame	OrigNumFrames
100.000000	100.000000	4	53	mm	100.000000	400	534
Frame#	Time	RPSI			LPSI			L3			STRN			T10			C7			CLAV			RBAK			LBAK			LSHO			LUPA			LAEL			LAOL			LWTS			LWPS			LFRA			LIFD			LHPS			LHTS			RSHO			RUPA			RAEL			RAOL			RWTS			RWPS			RFRA			RIFD			RHTS			RHPS			RBHD			LFHD			RFHD			LBHD			LHIP			RHIP			RASI			LASI			LKNE			LTHI			LANK			LTIP			LTOE			LMT1			LMT5			LHEE			RKNE			RTHI			RANK			RTIP			RTOE			RMT1			RMT5			RHEE			
		X1	Y1	Z1	X2	Y2	Z2	X3	Y3	Z3	X4	Y4	Z4	X5	Y5	Z5	X6	Y6	Z6	X7	Y7	Z7	X8	Y8	Z8	X9	Y9	Z9	X10	Y10	Z10	X11	Y11	Z11	X12	Y12	Z12	X13	Y13	Z13	X14	Y14	Z14	X15	Y15	Z15	X16	Y16	Z16	X17	Y17	Z17	X18	Y18	Z18	X19	Y19	Z19	X20	Y20	Z20	X21	Y21	Z21	X22	Y22	Z22	X23	Y23	Z23	X24	Y24	Z24	X25	Y25	Z25	X26	Y26	Z26	X27	Y27	Z27	X28	Y28	Z28	X29	Y29	Z29	X30	Y30	Z30	X31	Y31	Z31	X32	Y32	Z32	X33	Y33	Z33	X34	Y34	Z34	X35	Y35	Z35	X36	Y36	Z36	X37	Y37	Z37	X38	Y38	Z38	X39	Y39	Z39	X40	Y40	Z40	X41	Y41	Z41	X42	Y42	Z42	X43	Y43	Z43	X44	Y44	Z44	X45	Y45	Z45	X46	Y46	Z46	X47	Y47	Z47	X48	Y48	Z48	X49	Y49	Z49	X50	Y50	Z50	X51	Y51	Z51	X52	Y52	Z52	X53	Y53	Z53	

401	4	774.3380737304688	951.341552734375	545.174560546875	842.35595703125	952.05712890625	441.6224975585938	806.963134765625	1028.07763671875	484.5530090332031	988.0488891601562	1200.664794921875	592.4655151367188	791.1729125976562	1132.2080078125	480.2461547851562	814.336669921875	1364.052856445312	500.3779296875	952.5200805664062	1293.8828125	574.2088623046875	734.7938842773438	1240.61376953125	552.7210693359375	836.8280029296875	1309.86767578125	411.7264404296875	951.431640625	1363.218505859375	394.4234619140625	988.6456909179688	1240.095458984375	338.3969116210938	1051.932861328125	1038.20849609375	325.8463134765625	959.282958984375	1011.318725585938	346.1016235351562	1153.55029296875	881.8984375	407.6402587890625	1113.12646484375	830.2114868164062	339.8887023925781	1084.658813476562	964.4600219726562	337.5668334960938	1198.241088867188	730.9354858398438	419.5908813476562	1148.439086914062	787.087890625	354.2573547363281	1191.547729492188	812.0859375	395.2256164550781	790.3532104492188	1360.035034179688	655.775634765625	746.6951904296875	1293.798461914062	695.869384765625	708.5067749023438	1028.937377929688	723.625	693.7028198242188	1014.364318847656	660.5520629882812	794.9956665039062	823.1129150390625	766.5536499023438	708.0916748046875	804.4091796875	749.7832641601562	704.6027221679688	974.533935546875	731.2718505859375	788.858642578125	662.8662719726562	767.6920166015625	786.9231567382812	729.4209594726562	792.7544555664062	722.8762817382812	730.0648803710938	764.1360473632812	819.721923828125	1528.356323242188	594.1204833984375	1002.393310546875	1575.487426757812	527.8724365234375	941.4743041992188	1576.76416015625	639.5079956054688	883.80029296875	1523.565551757812	448.3402404785156	1006.786071777344	887.8487548828125	390.4548950195312	807.625244140625	863.2894897460938	714.6378784179688	920.8870239257812	919.08056640625	705.1017456054688	1045.062622070312	929.8018798828125	497.5115661621094	1022.121398925781	468.0450744628906	468.6208801269531	1038.39208984375	625.8040771484375	442.0272521972656	940.6671142578125	41.80415725708008	442.2381286621094	1003.727111816406	313.2732543945312	459.2811889648438	1075.901123046875	28.11197662353516	601.6024169921875	990.0816040039062	33.29281234741211	585.9022216796875	1035.27880859375	35.22300720214844	494.5467529296875	869.0111083984375	38.16292953491211	469.6892395019531	911.6583251953125	487.0479736328125	721.1958618164062	851.527587890625	738.960205078125	738.6231689453125	853.941162109375	47.54982376098633	706.8017578125	925.0513305664062	343.3651733398438	726.4114990234375	1052.341796875	49.61810302734375	744.6792602539062	1006.996643066406	48.04631042480469	684.2211303710938	950.8102416992188	43.89518356323242	763.6543579101562	823.4677734375	41.35408782958984	643.1112670898438	
402	4.01	777.8555908203125	951.0084228515625	548.7247314453125	845.7498779296875	951.9410400390625	445.0995178222656	809.94091796875	1027.5908203125	487.8799438476562	990.9457397460938	1200.779296875	595.025146484375	793.8860473632812	1131.620483398438	483.42919921875	816.6360473632812	1363.580810546875	503.0270080566406	955.1539306640625	1293.907470703125	576.620849609375	737.4067993164062	1240.114379882812	555.8977661132812	838.8577880859375	1309.25146484375	414.4555053710938	953.3468627929688	1362.593139648438	396.5839233398438	990.1873168945312	1239.321166992188	340.6373291015625	1053.67626953125	1037.430908203125	328.7352905273438	961.0303344726562	1010.561889648438	349.0231018066406	1155.8837890625	882.6683959960938	412.144775390625	1116.603759765625	830.251220703125	344.2214050292969	1086.741821289062	964.280029296875	341.0224914550781	1201.677856445312	732.1824340820312	425.8102111816406	1152.255493164062	787.4347534179688	359.4783325195312	1194.52001953125	813.0628662109375	400.6824645996094	793.0269165039062	1359.866943359375	658.5379638671875	749.6121826171875	1293.634033203125	698.7767944335938	711.3388061523438	1028.775390625	726.3917236328125	696.3455200195312	1014.347595214844	663.3365478515625	797.3169555664062	822.5612182617188	768.7263793945312	710.3914184570312	804.177001953125	752.0463256835938	707.3507080078125	974.3717651367188	733.9447631835938	790.6812744140625	662.3082885742188	769.3397216796875	789.0347290039062	728.8043212890625	794.6466674804688	725.0792846679688	729.7435913085938	766.08544921875	821.9576416015625	1527.976806640625	596.3228759765625	1004.827514648438	1575.326782226562	530.6790161132812	943.5517578125	1576.451904296875	642.13330078125	886.48486328125	1523.399536132812	450.7132873535156	1010.237731933594	887.97802734375	393.5804443359375	811.3501586914062	862.9000244140625	718.0332641601562	924.638671875	918.9185791015625	708.4426879882812	1048.490600585938	929.7982177734375	500.6717529296875	1023.793823242188	467.84326171875	469.5551147460938	1040.88037109375	625.712890625	443.9487915039062	940.6847534179688	41.72029876708984	442.1747436523438	1004.503173828125	313.2312316894531	459.6902160644531	1075.86328125	28.11935615539551	601.5536499023438	990.1077270507812	33.3453483581543	585.81201171875	1035.341186523438	35.12818145751953	494.4954528808594	869.0689086914062	38.23396301269531	469.5859375	915.08837890625	486.7245483398438	724.1414794921875	855.238525390625	738.6156005859375	741.8323364257812	856.4669189453125	47.57238006591797	708.2412719726562	928.6846313476562	342.6815795898438	728.3788452148438	1055.7412109375	45.77670669555664	744.4962768554688	1009.482116699219	45.99188232421875	684.479736328125	953.9603271484375	42.35531616210938	764.2350463867188	825.233642578125	41.94723892211914	644.9509887695312	
403	4.02	781.4037475585938	950.6942138671875	552.291259765625	849.1787719726562	951.8472900390625	448.6194152832031	812.8680419921875	1027.084594726562	491.3014831542969	993.773193359375	1200.898193359375	597.6145629882812	796.5381469726562	1130.993774414062	486.6899719238281	818.841796875	1363.081420898438	505.6984558105469	957.7109985351562	1293.928100585938	579.0503540039062	739.978759765625	1239.572631835938	559.1107788085938	840.7802734375	1308.59130859375	417.2137756347656	955.15185546875	1361.933471679688	398.7469177246094	991.5637817382812	1238.499389648438	342.8573913574219	1055.146606445312	1036.5966796875	331.5234069824219	962.4811401367188	1009.78076171875	351.9161376953125	1157.919555664062	883.32470703125	416.4381713867188	1119.754760742188	830.1956176757812	348.3764038085938	1088.523071289062	964.0131225585938	344.3402709960938	1204.740844726562	733.3287353515625	431.7910766601562	1155.696655273438	787.6826782226562	364.4908752441406	1197.14501953125	813.9306030273438	405.9043884277344	795.6201782226562	1359.683715820312	661.3226928710938	752.4599609375	1293.452514648438	701.7234497070312	714.1836547851562	1028.587280273438	729.2343139648438	699.027587890625	1014.286193847656	666.191162109375	799.69970703125	822.0125732421875	771.0205688476562	712.7589721679688	803.917724609375	754.3983154296875	710.1192626953125	974.1853637695312	736.6980590820312	792.6033935546875	661.7608642578125	771.1312866210938	791.2100830078125	728.1966552734375	796.6664428710938	727.3450317382812	729.4092407226562	768.140625	824.0430908203125	1527.58349609375	598.4485473632812	1007.132995605469	1575.16796875	533.461181640625	945.4561767578125	1576.182006835938	644.7078857421875	889.0931396484375	1523.182006835938	453.0262756347656	1013.669128417969	888.0761108398438	396.7785339355469	814.9908447265625	862.4942016601562	721.4414672851562	928.319091796875	918.72216796875	711.8671264648438	1051.911987304688	929.7725830078125	503.9486083984375	1025.425415039062	467.6572265625	470.5591125488281	1043.31982421875	625.6194458007812	445.97998046875	940.7078857421875	41.64924240112305	442.1019287109375	1005.251953125	313.2264404296875	460.1275329589844	1075.817260742188	28.13756370544434	601.4967041015625	990.1358032226562	33.40007019042969	585.71826171875	1035.407958984375	35.01913833618164	494.4320983886719	869.1222534179688	38.30960845947266	469.4876708984375	918.2136840820312	486.3100280761719	727.0321655273438	858.771240234375	738.2191772460938	745.0177001953125	858.1725463867188	47.67170715332031	709.0682373046875	931.8278198242188	341.9295959472656	730.1353759765625	1058.144897460938	42.01500701904297	744.4910278320312	1011.219299316406	44.01677322387695	684.7368774414062	956.0555419921875	40.86692810058594	764.6118774414062	826.4966430664062	42.54421234130859	646.0501708984375	
404	4.03	784.9776000976562	950.3983154296875	555.8660888671875	852.6253662109375	951.77001953125	452.1720886230469	815.7592163085938	1026.567260742188	494.8089904785156	996.5418701171875	1201.023803710938	600.2339477539062	799.1427612304688	1130.335083007812	490.0211486816406	820.9600830078125	1362.55908203125	508.3927917480469	960.2032470703125	1293.94482421875	581.4982299804688	742.51904296875	1238.994384765625	562.3505859375	842.6121826171875	1307.892578125	419.9980773925781	956.8632202148438	1361.249145507812	400.9149475097656	992.8048706054688	1237.63818359375	345.0709228515625	1056.373779296875	1035.713989257812	334.221923828125	963.6725463867188	1008.978881835938	354.7906799316406	1159.67724609375	883.8379516601562	420.4952697753906	1122.587280273438	830.0281372070312	352.3407592773438	1090.035278320312	963.6522216796875	347.5213012695312	1207.426025390625	734.3303833007812	437.4838562011719	1158.739990234375	787.8058471679688	369.2616882324219	1199.432983398438	814.6522827148438	410.8541259765625	798.1436157226562	1359.488525390625	664.1250610351562	755.2359008789062	1293.256469726562	704.702880859375	717.049072265625	1028.373291015625	732.15478515625	701.75927734375	1014.180603027344	669.1194458007812	802.152587890625	821.4720458984375	773.4403076171875	715.1991577148438	803.6376953125	756.8431396484375	712.9127807617188	973.9761352539062	739.5341796875	794.6397094726562	661.228271484375	773.0729370117188	793.4580688476562	727.6022338867188	798.817138671875	729.6640625	729.0619506835938	770.3172607421875	825.9730224609375	1527.183227539062	600.4825439453125	1009.305725097656	1575.0234375	536.223876953125	947.1742553710938	1575.971313476562	647.2338256835938	891.6396484375	1522.910034179688	455.2773742675781	1017.069152832031	888.1407470703125	400.0348815917969	818.566162109375	862.0973510742188	724.8701782226562	931.9351806640625	918.5038452148438	715.3590698242188	1055.329467773438	929.7256469726562	507.3180236816406	1027.009033203125	467.4837036132812	471.6301879882812	1045.716674804688	625.5216064453125	448.1104125976562	940.7373046875	41.59933853149414	442.0240478515625	1005.967346191406	313.2553405761719	460.5945129394531	1075.766357421875	28.16986274719238	601.4312133789062	990.166015625	33.45585250854492	585.6244506835938	1035.47802734375	34.89829254150391	494.3578491210938	869.1710815429688	38.38701629638672	469.4012145996094	920.978759765625	485.8003845214844	729.876953125	862.118896484375	737.7877807617188	748.180908203125	859.2445678710938	47.76698303222656	709.391845703125	934.4417114257812	341.1109008789062	731.6898803710938	1059.7412109375	38.69269180297852	744.6134033203125	1012.366577148438	42.28154373168945	684.9714965820312	957.3243408203125	39.53322601318359	764.8331298828125	827.4202880859375	43.02083969116211	646.5114135742188	
